<?xml version="1.0" encoding="utf-8"?>
<!-- Generator: Adobe Illustrator 26.3.1, SVG Export Plug-In . SVG Version: 6.00 Build 0)  -->
<svg version="1.1" id="Layer_1" xmlns="http://www.w3.org/2000/svg" xmlns:xlink="http://www.w3.org/1999/xlink" x="0px" y="0px"
	 viewBox="0 0 1000 1000" style="enable-background:new 0 0 1000 1000;" xml:space="preserve">
<style type="text/css">
	.st0{fill:#052C54;}
</style>
<g>
	<path class="st0" d="M21.4,482.5L76.3,511c0,0,24.9,14.4,38.1-12.5l135.8-286.8c0,0,12.8-24.5-8.1-36l-59.9-29.5
		c0,0-18.6-10.4-30.6,11.6C151.2,166.7,12.3,450,12.3,450S3.3,473.2,21.4,482.5L21.4,482.5z M916.7,511.6l56-26
		c0,0,26.8-11,13.9-38.1L846.8,162.6c0,0-11.2-25.3-33.1-15.8l-59.9,29.3c0,0-19.6,8.3-10,31.5c6.7,5.8,141.7,291.2,141.7,291.2
		S898.2,520.2,916.7,511.6L916.7,511.6z M154.2,510.6l18.5-39.6l64.9,82.7c0,0,42.2-9.7,57,16.9c0,0,13.9,16.2,7.8,46.8
		c0,0,8.7,6.4,9.4,10.4c0,0,29-7.1,46.5,13.7c0,0,16,12.9,14.2,38.1c0,0,11.5,5,13.9,11.9c0,0,28.5-7.2,42.4,9.7
		c0,0,16.9,16,15.7,34.6l26.5,19.6c0,0,24.7,2.1,28.6,21.6l23.8,17.7c0,0,38,15.2,40.1-23.2L474.3,703c0,0-10.5-27.7,22.3-23.4
		l132.9,94.6c0,0,21.7,9.4,34.9-11.5c0,0,12.8-18-5.4-37.5L517.7,622.1c0,0-12.5-28.9,19.6-26.7l167.8,119.9c0,0,23.8,9.6,33.8-8.4
		c0,0,13.6-17.9,0-36.4L553.7,534.1c0,0-11.2-32.7,23.5-24.2l191,137.4c0,0,28.9,9.2,41.7-14.6c0,0,16.4-25.6-5.6-46.7L534.2,348
		c0,0-50.2-24.2-80.2,26.5c0,0-5.3,82.6-96.1,97.7c0,0-62-4.8-47.6-45.9c0,0,18.2-24.3,16.6-75.5c0,0,2.1-36.7,27.3-68.1h-97.3
		l21.4-44.8h146.9c0,0,60.4-34.6,105.9-31.3c0,0,59.4,3.2,75.3,12.4c0,0,78.6,25.4,113.8,19.4l131.5,275.3l-20.9,48.1
		c0,0,38.5,39.9,10.1,88.4c-7.9,16.3-28.2,32-61.4,33.5c0,0,5.1,32.7-18.2,51.1c0,0-17.1,23.7-58.5,17.2c0,0,2.4,28.9-25.1,48.1
		c0,0-32.7,28.4-83.1-6.2c0,0-8,32.5-48.3,39.1c0,0-29.4,4.6-46.5-12.1c0,0-30.8,58.6-74.6,25.6c0,0-27.8-23.2-8.3-56.1
		c0,0-37.4,59.6-81.7,14.8c0,0-24.6-18.7-1.9-57.8c0,0-35.2,40.5-74,3.8c0,0-26.5-21.8-5.3-62.5c0,0-36,43.1-78,2
		c0,0-17.6-16.4-7.5-52.9l40.6-56.1L154.2,510.6L154.2,510.6z"/>
</g>
</svg>
