<?xml version="1.0" encoding="utf-8"?>
<!-- Generator: Adobe Illustrator 23.1.0, SVG Export Plug-In . SVG Version: 6.00 Build 0)  -->
<svg version="1.1" id="Layer_1" xmlns="http://www.w3.org/2000/svg" xmlns:xlink="http://www.w3.org/1999/xlink" x="0px" y="0px"
	 viewBox="0 0 1000 1000" style="enable-background:new 0 0 1000 1000;" xml:space="preserve">
<style type="text/css">
	.st0{fill:#F56B30;}
</style>
<g>
	<g>
		<path class="st0" d="M989.3,408.1c-1-23-3.1-46.6-5.5-70.7C966.8,170.6,833.6,33.7,667.5,13C488.3-9.4,331.1,98.7,276.4,255
			c-6.9-0.6-13.8-1.1-20.8-1.1C121.1,254,10,363.6,10,498.3v61c0,33.3,29.1,60.5,62.4,60.5h1.2c33.3,0,58.6-28.6,58.6-61.9v-48.1
			C125.1,437.1,184.4,376,255.5,376c3.6,0,7.1,0.3,10.5,0.6l47.1-0.6c27.7,2.3,53.2-9.7,62.4-36l13.2-37.8
			C421,210.4,501.9,141.6,598.6,133c149.7-13.3,279.1,112.9,269.1,262.3l-0.2,12.8V565h0.6c1.8,31.9,29.8,57.4,62,57.4h1.2
			c31.8,0,56-26.1,58.3-57.4h0.4V408.1H989.3L989.3,408.1z"/>
		<path class="st0" d="M639.7,702.5l-78.8,80.6V560.6c0-33.5-27-60.6-60.3-60.6h-1.2c-33.3,0-60.3,27.1-60.3,60.6v213.2l-7.9-1.3
			l-68.5-68.2c-21.6-21.5-56.2-26.7-80.9-9c-31.4,22.6-34,66.4-7.8,92.5l185,184.3c11.4,11.4,26.9,17.8,43.2,17.8
			c16.2,0,31.7-6.4,43.2-17.8l180.8-183.7c23.8-23.7,23.8-62.2,0-85.9C702.2,678.7,663.6,678.7,639.7,702.5L639.7,702.5z"/>
	</g>
</g>
</svg>
