<?xml version="1.0" encoding="utf-8"?>
<!-- Generator: Adobe Illustrator 23.1.0, SVG Export Plug-In . SVG Version: 6.00 Build 0)  -->
<svg version="1.1" id="Layer_1" xmlns="http://www.w3.org/2000/svg" xmlns:xlink="http://www.w3.org/1999/xlink" x="0px" y="0px"
	 viewBox="0 0 1000 1000" style="enable-background:new 0 0 1000 1000;" xml:space="preserve">
<style type="text/css">
	.st0{fill:#F56B30;}
</style>
<g>
	<path class="st0" d="M418,680.6c0-28-22.8-50.8-50.8-50.8c-28.1,0-50.8,22.8-50.8,50.8s22.8,50.8,50.8,50.8
		C395.2,731.4,418,708.7,418,680.6z M377.6,713c-14.4,0-26-11.7-26-26.1c0-14.3,11.7-26,26-26c14.4,0,26,11.7,26,26
		C403.6,701.3,392,713,377.6,713z M577.4,680.6c0,28,22.7,50.8,50.7,50.8s50.8-22.8,50.8-50.8s-22.7-50.8-50.8-50.8
		C600.1,629.8,577.4,652.6,577.4,680.6z M617.7,660.9c14.4,0,26,11.7,26,26c0,14.4-11.7,26.1-26,26.1c-14.4,0-26-11.7-26-26.1
		C591.7,672.6,603.4,660.9,617.7,660.9z M385.4,809.3h219.4C604.8,809.3,498.6,926,385.4,809.3z M932.4,414.4l0.1-1.1
		c0.5-6.7,0.9-13.4,0.9-20.2c0-128.7-46.9-183.9-135.6-264.5C713.5,52,626.9,10,500.1,10c-126.7,0-213.3,42-297.6,118.5
		C113.8,209.1,66.8,264.3,66.8,393c0,5,0.3,9.9,0.5,14.9l0.2,6.4c-22.7,1.3-40.8,18.9-40.8,40.9v274.2c0,22.9,19.2,41.5,43,41.5
		h14.7c8.5,8.4,20.1,13.3,32.2,13.3h43.9c1.9,0,3.9-0.3,5.8-0.5C235.4,907.5,356.9,990,495.1,990c138.9,0,261.1-83.3,330-208.3
		c4.5,1.4,9.4,2.4,14.4,2.4h44c12.2,0,23.7-4.8,32-13.3h14.9c23.7,0,42.9-18.6,42.9-41.5V455.2C973.2,433.2,955.1,415.5,932.4,414.4
		z M794.1,722.3C738.3,845.6,625.4,930,495.1,930c-123.1,0-230.8-75.4-289.3-187.8c0-0.5,0.1-0.9,0.1-1.4V547.2H275l152.4-113.3
		l-61,114.3c0,0,259.8,54,427.8,10.8v163.3H794.1z M860,400.6c-55.2-151.9-197.9-235.2-364.8-235.2c-166.2,0-308.4,82.7-364,233.5
		c3.5-203.9,136.2-329.4,378-329.4c217.1,0,356.6,125.5,360,331.1L860,400.6L860,400.6z"/>
</g>
</svg>
