<?xml version="1.0" encoding="UTF-8" standalone="no"?><svg id="Layer_1" data-name="Layer 1" xmlns="http://www.w3.org/2000/svg" viewBox="0 0 462.77 345.31"><defs><style>.cls-1{fill:#58595b;}.cls-1,.cls-2,.cls-3{stroke:#fff;stroke-miterlimit:10;}.cls-1,.cls-2{stroke-width:6px;}.cls-2,.cls-3{fill:none;}.cls-3{stroke-width:10px;}</style></defs><title>Kin</title><path class="cls-1" d="M74.56,107.77" transform="translate(-7.35 -7.39)"/><path class="cls-2" d="M452.7,224.9m17.42-34.82" transform="translate(-7.35 -7.39)"/><circle class="cls-1" cx="172.65" cy="172.65" r="169.65"/><path class="cls-3" d="M123.56,107.83V252.21A29.77,29.77,0,0,1,93.79,282H90a29.77,29.77,0,0,1-28.24-29.73V107.87A29.77,29.77,0,0,1,91.49,78.1h3.83A29.77,29.77,0,0,1,123.56,107.83Z" transform="translate(-7.35 -7.39)"/><path class="cls-1" d="M116.72,261.8" transform="translate(-7.35 -7.39)"/><path class="cls-1" d="M116,107" transform="translate(-7.35 -7.39)"/><path class="cls-2" d="M503,190.41" transform="translate(-7.35 -7.39)"/><path class="cls-2" d="M470.12,190.08" transform="translate(-7.35 -7.39)"/><path class="cls-2" d="M503,266.05" transform="translate(-7.35 -7.39)"/><path class="cls-2" d="M452.7,224.9" transform="translate(-7.35 -7.39)"/><path class="cls-3" d="M159.4,214.66l96.43,55.68c26.65,15.39,60-3.85,60-34.63V124.37c0-30.78-33.32-50-60-34.63L159.4,145.42C132.75,160.81,132.75,199.28,159.4,214.66Z" transform="translate(-7.35 -7.39)"/></svg>