<?xml version="1.0" encoding="utf-8"?>
<!-- Generator: Adobe Illustrator 23.1.0, SVG Export Plug-In . SVG Version: 6.00 Build 0)  -->
<svg version="1.1" id="Layer_1" xmlns="http://www.w3.org/2000/svg" xmlns:xlink="http://www.w3.org/1999/xlink" x="0px" y="0px"
	 viewBox="0 0 143 120" style="enable-background:new 0 0 143 120;" xml:space="preserve">
<style type="text/css">
	.st0{opacity:0.3;clip-path:url(#SVGID_2_);}
	.st1{fill-rule:evenodd;clip-rule:evenodd;fill:#FECB8A;}
</style>
<g>
	<defs>
		<rect id="SVGID_1_" width="143" height="120"/>
	</defs>
	<clipPath id="SVGID_2_">
		<use xlink:href="#SVGID_1_"  style="overflow:visible;"/>
	</clipPath>
	<g class="st0">
		<path class="st1" d="M142.4,18.7c-21.3,10.4-32,22.6-32,36.7c9.1,1,16.6,4.7,22.5,11.1c5.9,6.3,8.9,13.7,8.9,22
			c0,8.9-2.9,16.3-8.7,22.4c-5.8,6.1-13,9.1-21.8,9.1c-9.8,0-18.3-3.9-25.4-11.8c-7.2-7.9-10.7-17.5-10.7-28.8
			c0-33.8,19.1-60.3,57.2-79.4L142.4,18.7z M67.1,18.7C45.6,29.2,34.9,41.4,34.9,55.4c9.3,1,16.9,4.7,22.8,11.1s8.9,13.7,8.9,22
			c0,8.9-2.9,16.3-8.8,22.4C52,117,44.7,120,35.9,120c-9.8,0-18.2-3.9-25.3-11.8C3.5,100.3,0,90.7,0,79.4C0,45.6,19,19.1,56.9,0
			L67.1,18.7z"/>
	</g>
</g>
</svg>
