<?xml version="1.0" encoding="utf-8"?>
<!-- Generator: Adobe Illustrator 23.1.0, SVG Export Plug-In . SVG Version: 6.00 Build 0)  -->
<svg version="1.1" id="Layer_1" xmlns="http://www.w3.org/2000/svg" xmlns:xlink="http://www.w3.org/1999/xlink" x="0px" y="0px"
	 viewBox="0 0 1000 1000" style="enable-background:new 0 0 1000 1000;" xml:space="preserve">
<style type="text/css">
	.st0{fill:#F56B30;}
</style>
<g>
	<g transform="translate(0.000000,511.000000) scale(0.100000,-0.100000)">
		<path class="st0" d="M1426.7,5014.5c-250.1-81.1-448.5-331.3-450.7-567.9c0-171.3,58.6-302,182.5-410.1l110.4-94.7V2891.7V1841.5
			l-191.6-11.3C777.7,1814.5,683,1715.3,683,1413.4v-164.5h867.6h867.6v153.2c-2.3,308.7-123.9,430.4-432.7,432.7h-153.2v1050.1
			v1050.2l103.7,92.4c133,117.2,189.3,236.6,187,398.9c-2.3,148.7-31.6,234.4-123.9,365.1
			C1879.7,4958.2,1595.7,5070.9,1426.7,5014.5z"/>
		<path class="st0" d="M3227.3,2639.3c-108.2-58.6-187-157.7-223.1-283.9c-11.3-45.1-22.5-311-22.5-592.7v-513.8h293h293v293v293
			h2591.6h2591.6v-293v-293h295.2h293l-6.8,572.4l-6.8,572.4l-67.6,99.2c-40.6,56.3-110.4,117.2-169,148.7l-99.2,49.6H6156.9H3326.4
			L3227.3,2639.3z"/>
		<path class="st0" d="M340.5,910.8c-108.2-58.6-189.3-164.5-220.8-293c-18-72.1-22.5-820.3-18-2602.8
			c6.8-2303.1,9-2505.9,45.1-2571.3c56.3-101.4,184.8-207.3,286.2-234.4c60.8-15.8,1505.4-20.3,4624.3-18
			c4493.6,6.8,4538.6,6.8,4615.3,51.8c42.8,24.8,108.2,83.4,146.5,130.7l69.8,87.9l6.8,2596.1l4.5,2596.1l-65.4,101.4
			c-42.8,69.9-99.1,119.4-164.5,153.2l-99.1,47.3H4996.3C505,953.6,421.6,953.6,340.5,910.8z M3488.7,34.2
			c845.1-216.3,1460.3-969,1514.4-1850.1c60.8-1007.3-687.3-1933.5-1690.2-2095.8c-234.4-38.3-653.5-18-860.9,42.8
			c-770.7,227.6-1329.6,854.1-1455.8,1633.8c-36.1,232.1-15.8,631,47.3,847.3C1257.7-635.1,1866.1-80.7,2639.1,65.8
			C2866.7,108.6,3249.8,95,3488.7,34.2z M6740.5-186.7l-6.8-288.4h-428.2h-428.2l-6.8,288.4l-6.8,286.2h441.7h441.7L6740.5-186.7z
			 M7894.4-193.4v-293h-428.2H7038v293v293h428.2h428.2L7894.4-193.4L7894.4-193.4z M9043.7-193.4v-293h-428.2h-428.2v293v293h428.2
			h428.2V-193.4z M9043.7-1342.7v-293H7454.9H5866.2v277.2c0,153.2,6.8,286.2,15.8,293c6.8,9,723.4,15.8,1588.7,15.8h1573V-1342.7z
			 M9043.7-2503.3V-2785H7454.9H5866.2v281.7v281.7h1588.7h1588.7L9043.7-2503.3L9043.7-2503.3z M9043.7-3652.6v-281.7H7454.9
			H5866.2v281.7v281.7h1588.7h1588.7L9043.7-3652.6L9043.7-3652.6z"/>
		<path class="st0" d="M2718-1103.8c-139.7-45.1-238.9-114.9-365.1-250.1c-153.2-169-211.8-329-214.1-574.6
			c-2.3-169,6.7-209.6,67.6-340.3c99.2-209.6,207.3-320,410.1-421.4c160-76.6,184.8-83.4,374.1-83.4c182.5,0,220.9,9,351.6,69.9
			c660.3,313.3,671.6,1219.2,18,1554.9c-101.4,54.1-153.2,63.1-333.5,69.9C2889.2-1074.6,2778.8-1083.6,2718-1103.8z"/>
	</g>
</g>
</svg>
