<?xml version="1.0" encoding="utf-8"?>
<!-- Generator: Adobe Illustrator 26.3.1, SVG Export Plug-In . SVG Version: 6.00 Build 0)  -->
<svg version="1.1" id="Layer_1" xmlns="http://www.w3.org/2000/svg" xmlns:xlink="http://www.w3.org/1999/xlink" x="0px" y="0px"
	 viewBox="0 0 1000 1000" style="enable-background:new 0 0 1000 1000;" xml:space="preserve">
<style type="text/css">
	.st0{fill:#052C54;}
</style>
<g>
	<path class="st0" d="M500,989.7C229.8,989.7,10,770,10,500S229.8,10.3,500,10.3S990,230,990,500S770.2,989.7,500,989.7z M500,74.1
		c-235,0-426.2,191-426.2,425.9C73.9,734.8,265,925.9,500,925.9S926.1,734.8,926.1,500S735,74.1,500,74.1z"/>
	<path class="st0" d="M505.2,573.5l-5.9-0.1c-40.9-1-75.8-16.8-100.9-45.7c-41.7-47.9-48.4-122.3-48.3-166
		c-72.5-2.2-176.4-14.7-215.7-66c-15.7-20.5-20.3-45.2-13.2-71.3c40-147.8,313-214.2,378.8-214.2c9.3,0,228.8,1.3,271.6,111.5
		c33.2,85.3-23.4,244.2-29.9,262C691.7,506.5,607.9,573.5,505.2,573.5z M419.3,297.4l-4,36.3c-3.2,28.7-3.8,112,31.3,152.2
		c13.4,15.4,31.1,23.1,54.2,23.7h4.4c96.1,0,149.3-81,177-149c21.1-57.6,48.4-168.4,30-215.8C692.7,94.8,564.5,74,500.1,74
		c-67.8,0-290.3,67.4-317.2,167c-2.1,7.9-0.6,12,2.3,15.8c18.6,24.4,96.9,41.4,190.4,41.4L419.3,297.4z"/>
	<path class="st0" d="M383.5,955c-6.8,0-13.6-2.2-19.4-6.6c-14-10.8-16.6-30.8-5.9-44.8c0.6-0.8,62.6-81.4,145.6-183.8
		c122.6-151.2,213.1-155.1,267.4-131.6c104.5,45.1,104.5,207.7,104.5,214.6c-0.1,17.5-14.4,31.7-31.9,31.7c-0.1,0-0.1,0-0.2,0
		c-17.6-0.1-31.8-14.5-31.7-32.1c0.2-35.3-11.4-132.1-65.9-155.6c-64.8-27.9-148.5,58.9-192.5,113.2
		c-82.5,101.7-144,181.7-144.6,182.5C402.5,950.7,393,955,383.5,955z"/>
</g>
</svg>
