<?xml version="1.0" encoding="utf-8"?>
<!-- Generator: Adobe Illustrator 26.3.1, SVG Export Plug-In . SVG Version: 6.00 Build 0)  -->
<svg version="1.1" id="Layer_1" xmlns="http://www.w3.org/2000/svg" xmlns:xlink="http://www.w3.org/1999/xlink" x="0px" y="0px"
	 viewBox="0 0 1000 1000" style="enable-background:new 0 0 1000 1000;" xml:space="preserve">
<style type="text/css">
	.st0{fill:#052C54;}
</style>
<g>
	<g transform="matrix(1 0 0 -1 0 1920)">
		<path class="st0" d="M140.3,1270.7l-3.2,0.4c-6.3,0.8-11,4.1-14.2,9.9C89,1344.1,72,1411.1,72,1482.1c0,38.6,5.1,76.5,15.4,113.6
			s24.6,71.2,43,102.3c18.4,31.2,40.8,59.9,67.2,86.4c26.4,26.4,55.3,48.8,86.6,67.2c31.3,18.4,65.4,32.7,102.3,43
			s74.7,15.4,113.4,15.4c33.1,0,65.7-3.7,97.8-11.2c32.1-7.5,62.2-18.3,90.3-32.3c28.1-14.1,54.6-30.9,79.3-50.5
			s46.9-41.7,66.5-66.5c19.6-24.7,36.4-51.1,50.5-79.3c14.1-28.1,24.8-58.2,32.3-90.3c7.5-32.1,11.2-64.7,11.2-97.8
			c0-71-17-138-50.9-201.1c-2.9-5.8-7.6-9.1-14.2-9.9l-3.2-0.4c-5.3,0-9.9,2-13.8,5.9l-20.1,20.1c-3.9,3.9-5.9,8.5-5.9,13.8
			c0,3.2,0.7,6.2,2,9.1c26,51.3,39,105.4,39,162.5c0,28.1-3.2,55.7-9.5,82.6s-15.4,52.3-27.4,75.9c-12,23.7-26.2,45.9-42.6,66.8
			c-16.4,20.9-35.1,39.6-56,56S682,1794,658.4,1806c-23.7,12-49,21.1-75.9,27.4s-54.5,9.5-82.6,9.5s-55.7-3.2-82.6-9.5
			S365,1818,341.4,1806c-23.7-12-45.9-26.2-66.8-42.6c-20.9-16.4-39.6-35.1-56-56s-30.6-43.2-42.6-66.8c-12-23.7-21.1-49-27.4-75.9
			s-9.5-54.5-9.5-82.6c0-57.1,13-111.2,39-162.5c1.3-2.9,2-5.9,2-9.1c0-5.3-2-9.9-5.9-13.8l-20.1-20.1
			C150.2,1272.7,145.6,1270.7,140.3,1270.7z M260.2,1390.6c-1.6,0-3.2,0.3-4.7,0.8c-7.4,1.8-12.1,6.3-14.2,13.4
			c-7.6,25-11.4,50.7-11.4,77.3c0,36.5,7.2,71.5,21.5,104.9c14.3,33.4,33.5,62.1,57.6,86.2s52.8,43.2,86.2,57.6
			s68.4,21.5,104.9,21.5c24.5,0,48.4-3.2,71.8-9.7c23.4-6.4,45-15.5,64.7-27.2s37.9-25.8,54.4-42.4c16.6-16.6,30.7-34.7,42.4-54.4
			c11.7-19.7,20.8-41.3,27.2-64.7s9.7-47.3,9.7-71.8c0-26.6-3.8-52.3-11.4-77.3c-2.1-7.1-6.8-11.6-14.2-13.4
			c-1.6-0.5-3.2-0.8-4.7-0.8c-5.5,0-10.1,2-13.8,5.9l-23.3,23.3c-3.9,3.7-5.9,8.3-5.9,13.8c0,1.6,0.3,3.2,0.8,4.7
			c3.7,15.5,5.5,30.1,5.5,43.8c0,27.6-5.4,53.9-16.2,78.9s-25.2,46.5-43.4,64.7c-18.1,18.1-39.7,32.6-64.7,43.4
			s-51.3,16.2-78.9,16.2s-53.9-5.4-78.9-16.2c-25-10.8-46.5-25.2-64.7-43.4c-18.1-18.1-32.6-39.7-43.4-64.7s-16.2-51.3-16.2-78.9
			c0-13.7,1.8-28.3,5.5-43.8c0.5-1.6,0.8-3.2,0.8-4.7c0-5.5-2-10.1-5.9-13.8l-23.3-23.3C270.3,1392.6,265.7,1390.6,260.2,1390.6z
			 M500,1363.8c-21.6,0-41.4,5.3-59.5,15.8s-32.5,24.9-43,43.2c-10.5,18.3-15.8,38.1-15.8,59.4c0,32.6,11.6,60.5,34.7,83.6
			s51,34.7,83.6,34.7s60.5-11.6,83.6-34.7c23.1-23.1,34.7-51,34.7-83.6s-11.6-60.5-34.7-83.6C560.5,1375.4,532.6,1363.8,500,1363.8z
			 M500,930c-9.2,0-17.7,1.4-25.6,4.3c-7.9,2.9-14.4,6.6-19.5,11.2c-5.1,4.6-9.8,9.7-14,15.4s-7.5,11.3-9.9,17s-4.3,10.8-5.9,15.4
			s-2.6,8.3-3.2,11.2l-0.8,4.3l-39.4,236.6c0,21.8,7.7,40.4,23.1,55.8s34,23.1,55.8,23.1h78.9c14.2,0,27.3-3.5,39.4-10.6
			c12.1-7.1,21.7-16.7,28.8-28.8c7.1-12.1,10.6-25.2,10.6-39.4l-39.4-236.6c-0.3-1.1-0.5-2.6-0.8-4.5c-0.3-2-1.2-5.7-3-11
			s-3.7-10.6-5.9-15.6s-5.5-10.5-9.9-16.6c-4.3-6-9.1-11.2-14.2-15.6c-5.1-4.3-11.6-8-19.5-11C517.7,931.5,509.2,930,500,930z"/>
	</g>
</g>
</svg>
